<?xml version="1.0" encoding="UTF-8"?>
<!DOCTYPE svg PUBLIC "-//W3C//DTD SVG 1.1//EN" "http://www.w3.org/Graphics/SVG/1.1/DTD/svg11.dtd">
<!-- Creator: CorelDRAW 2018 (64-Bit) -->
<svg xmlns="http://www.w3.org/2000/svg" xml:space="preserve" width="42mm" height="36mm" version="1.1" style="shape-rendering:geometricPrecision; text-rendering:geometricPrecision; image-rendering:optimizeQuality; fill-rule:evenodd; clip-rule:evenodd"
viewBox="0 0 4200 3600"
 xmlns:xlink="http://www.w3.org/1999/xlink">
 <defs>
  <style type="text/css">
   <![CDATA[
    .fil0 {fill:#77C14A}
   ]]>
  </style>
 </defs>
 <g id="Katman_x0020_1">
  <metadata id="CorelCorpID_0Corel-Layer"/>
  <g id="_1956089278608">
   <g>
    <path class="fil0" d="M503.5 2710.1c-104.97,269.89 -183.39,549.38 -234.08,834.5 -60.65,-2.12 -121.12,-1.84 -181.59,0 131.55,-664.05 414.45,-1288.84 826.68,-1825.8 21.03,-27.54 42.6,-54.67 64.08,-81.45 398.65,-493.26 894.45,-853.48 1432.23,-1022.75 106.56,-33.62 215.36,-59.73 325.55,-78.12 -182.66,16.43 -362.98,52.66 -537.83,108.03 -584.91,184.28 -1124.14,576.16 -1558.27,1113.29 -149.61,185.65 -283.75,383.24 -401.13,590.79 -800.95,-1512.78 1899.88,-3234.06 3902.09,-1632.76 -1413.69,152.58 -1191.29,742.27 -1915.06,1720.36 -500.13,676.19 -1183.7,837.75 -1722.67,273.91z"/>
   </g>
  </g>
 </g>
</svg>
