<?xml version="1.0" encoding="UTF-8"?>
<!DOCTYPE svg PUBLIC "-//W3C//DTD SVG 1.1//EN" "http://www.w3.org/Graphics/SVG/1.1/DTD/svg11.dtd">
<!-- Creator: CorelDRAW 2018 (64-Bit) -->
<svg xmlns="http://www.w3.org/2000/svg" xml:space="preserve" width="296mm" height="36mm" version="1.1" style="shape-rendering:geometricPrecision; text-rendering:geometricPrecision; image-rendering:optimizeQuality; fill-rule:evenodd; clip-rule:evenodd"
viewBox="0 0 29600 3600"
 xmlns:xlink="http://www.w3.org/1999/xlink">
 <defs>
  <style type="text/css">
   <![CDATA[
    .fil0 {fill:#77C14A}
    .fil1 {fill:#77C14A;fill-rule:nonzero}
   ]]>
  </style>
 </defs>
 <g id="Katman_x0020_1">
  <metadata id="CorelCorpID_0Corel-Layer"/>
  <g id="_1956101164112">
   <g>
    <g>
     <path class="fil0" d="M463.5 2710.1c-104.97,269.89 -183.39,549.38 -234.08,834.5 -60.65,-2.12 -121.12,-1.84 -181.59,0 131.55,-664.05 414.45,-1288.84 826.68,-1825.8 21.03,-27.54 42.6,-54.67 64.08,-81.45 398.65,-493.26 894.45,-853.48 1432.23,-1022.75 106.56,-33.62 215.36,-59.73 325.55,-78.12 -182.66,16.43 -362.98,52.66 -537.83,108.03 -584.91,184.28 -1124.14,576.16 -1558.27,1113.29 -149.61,185.65 -283.75,383.24 -401.13,590.79 -800.95,-1512.78 1899.88,-3234.06 3902.09,-1632.76 -1413.69,152.58 -1191.29,742.27 -1915.06,1720.36 -500.13,676.19 -1183.7,837.75 -1722.67,273.91z"/>
    </g>
   </g>
   <path class="fil1" d="M4768.19 1802.64c0,-100.11 18.86,-198.29 56.59,-294.57 37.75,-96.26 92.8,-183.68 165.19,-262.22 72.39,-78.56 160.59,-141.33 264.56,-188.31 103.98,-46.99 221.41,-70.48 352.34,-70.48 157.1,0 294.2,32.75 411.26,98.2 117.06,65.48 204.09,152.1 261.07,259.93l-344.27 244.91c-20,-53.91 -48.9,-95.49 -86.62,-124.76 -37.73,-29.26 -78.57,-49.69 -122.47,-61.24 -43.89,-11.55 -86.62,-17.32 -128.21,-17.32 -64.7,0 -120.54,12.71 -167.5,38.12 -46.99,25.41 -85.51,58.91 -115.52,100.49 -30.04,41.61 -52.39,87.8 -67.02,138.64 -14.63,50.82 -21.95,101.66 -21.95,152.48 0,57.01 8.49,111.68 25.41,164.04 16.95,52.39 41.61,98.97 73.93,139.79 32.36,40.81 72.02,72.79 119.01,95.88 46.96,23.1 99.72,34.67 158.25,34.67 41.58,0 83.96,-6.55 127.09,-19.64 43.13,-13.11 82.4,-34.29 117.81,-63.56 35.44,-29.26 62.39,-68.53 80.88,-117.83l367.36 219.49c-32.35,80.11 -86.25,148.65 -161.73,205.63 -75.48,56.99 -160.96,100.52 -256.48,130.55 -95.48,30.04 -190.22,45.05 -284.17,45.05 -121.69,0 -232.98,-24.27 -333.86,-72.77 -100.89,-48.53 -187.92,-113.23 -261.08,-194.08 -73.16,-80.86 -129.75,-171.74 -169.82,-272.63 -40.04,-100.88 -60.05,-203.71 -60.05,-308.46zm2407.45 847.94c-124.78,0 -237.98,-23.49 -339.64,-70.45 -101.66,-46.99 -189.08,-110.15 -262.25,-189.46 -73.16,-79.34 -129.38,-168.68 -168.65,-268.02 -39.27,-99.34 -58.9,-202.17 -58.9,-308.43 0,-109.38 20.78,-213.35 62.36,-311.92 41.59,-98.57 99.74,-186.77 174.45,-264.54 74.71,-77.79 163.28,-139.01 265.71,-183.68 102.43,-44.67 214.46,-67.02 336.15,-67.02 124.76,0 237.99,23.49 339.64,70.48 101.66,46.98 188.69,110.52 261.08,190.6 72.39,80.11 128.21,169.82 167.51,269.19 39.27,99.34 58.9,201.37 58.9,306.12 0,107.83 -20.4,211.03 -61.22,309.6 -40.81,98.58 -98.57,186.75 -173.28,264.54 -74.7,77.79 -162.9,139.41 -264.56,184.83 -101.66,45.44 -214.09,68.16 -337.3,68.16zm-371.99 -831.76c0,55.47 7.71,108.98 23.12,160.59 15.38,51.59 38.49,97.8 69.3,138.61 30.81,40.81 69.71,73.17 116.67,97.06 46.98,23.86 102.83,35.81 167.5,35.81 64.71,0 120.92,-12.32 168.68,-36.98 47.73,-24.64 86.63,-58.14 116.66,-100.49 30.04,-42.36 52.39,-89.34 67.02,-140.95 14.63,-51.59 21.95,-104.35 21.95,-158.25 0,-55.47 -7.71,-108.61 -23.12,-159.42 -15.4,-50.84 -38.5,-96.66 -69.3,-137.47 -30.81,-40.84 -70.08,-72.79 -117.84,-95.89 -47.75,-23.11 -103.2,-34.66 -166.36,-34.66 -64.68,0 -120.52,12.32 -167.51,36.95 -46.96,24.67 -85.85,57.39 -116.66,98.2 -30.81,40.82 -53.53,87.03 -68.16,138.64 -14.64,51.59 -21.95,104.35 -21.95,158.25zm1857.62 11.57l0 806.33 -450.53 0 0 -1640.4 351.19 0 658.48 834.07 0 -834.07 450.53 0 0 1640.4 -358.13 0 -651.54 -806.33zm2292.01 -298.05c0,0 -13.09,-7.69 -39.27,-23.1 -26.18,-15.4 -60.85,-32.75 -103.98,-51.99 -43.12,-19.26 -90.11,-36.58 -140.92,-51.98 -50.85,-15.41 -100.89,-23.12 -150.19,-23.12 -38.5,0 -70.08,6.17 -94.71,18.49 -24.67,12.32 -36.98,33.12 -36.98,62.39 0,27.72 12.31,50.04 36.98,66.99 24.63,16.95 59.67,32.35 105.11,46.21 45.44,13.87 99.72,30.81 162.88,50.82 101.66,30.81 189.46,66.25 263.39,106.29 73.94,40.04 130.93,91.25 170.97,153.64 40.06,62.39 60.07,145.19 60.07,248.39 0,98.57 -17.72,181.37 -53.13,248.36 -35.44,66.99 -83.17,120.52 -143.24,160.59 -60.08,40.04 -127.09,68.9 -201.03,86.62 -73.91,17.72 -149.39,26.58 -226.41,26.58 -78.57,0 -160.56,-8.09 -246.07,-24.26 -85.48,-16.18 -168.28,-38.5 -248.36,-67 -80.11,-28.51 -153.27,-62.01 -219.49,-100.51l194.08 -395.09c0,0 15.4,9.24 46.21,27.73 30.79,18.49 71.62,39.27 122.44,62.39 50.84,23.09 107.43,43.89 169.82,62.38 62.39,18.47 125.15,27.73 188.31,27.73 49.28,0 83.54,-6.55 102.81,-19.64 19.26,-13.11 28.89,-30.43 28.89,-51.98 0,-32.36 -16.95,-57.39 -50.84,-75.11 -33.9,-17.72 -78.17,-34.64 -132.84,-50.82 -54.7,-16.17 -115.15,-35.04 -181.37,-56.61 -95.51,-32.35 -174.05,-68.93 -235.67,-109.75 -61.62,-40.81 -107.06,-89.34 -136.32,-145.55 -29.27,-56.22 -43.9,-124.38 -43.9,-204.47 0,-121.69 28.49,-223.35 85.48,-304.97 56.99,-81.65 132.09,-143.64 225.27,-186 93.19,-42.35 193.68,-63.53 301.51,-63.53 80.11,0 157.5,9.63 232.21,28.87 74.71,19.26 144.79,42.75 210.24,70.47 65.47,27.73 122.83,53.91 172.13,78.57l-194.08 371.97zm1155.22 1118.24c-130.92,0 -243.36,-21.55 -337.33,-64.68 -93.94,-43.13 -170.56,-102.43 -229.87,-177.91 -59.3,-75.48 -102.82,-162.1 -130.55,-259.93 -27.72,-97.8 -41.58,-200.63 -41.58,-308.44l0 -843.3 450.53 0 0 843.3c0,53.91 5.4,105.52 16.18,154.79 10.77,49.3 27.72,93.2 50.84,131.7 23.09,38.52 52.73,68.93 88.94,91.26 36.18,22.34 80.48,33.52 132.84,33.52 53.93,0 99.37,-11.18 136.32,-33.52 36.96,-22.33 66.62,-53.14 88.95,-92.4 22.34,-39.3 38.89,-83.57 49.67,-132.87 10.8,-49.27 16.17,-100.12 16.17,-152.48l0 -843.3 450.54 0 0 843.3c0,113.98 -15.01,220.27 -45.05,318.84 -30.03,98.57 -75.08,184.83 -135.15,258.76 -60.08,73.94 -136.7,131.33 -229.9,172.14 -93.19,40.81 -203.69,61.22 -331.55,61.22zm1007.3 -13.86l0 -1640.4 450.53 0 0 1247.62 743.96 0 0 392.78 -1194.49 0zm2416.83 -1247.63l-471.31 0 0 1247.63 -450.53 0 0 -1247.63 -473.65 0 0 -392.77 1395.49 0 0 392.77zm171.04 1247.63l0 -1640.4 450.54 0 0 1640.4 -450.54 0zm1189.92 -806.33l0 806.33 -450.56 0 0 -1640.4 351.19 0 658.48 834.07 0 -834.07 450.53 0 0 1640.4 -358.11 0 -651.53 -806.33zm2007.81 817.87c-106.26,0 -207.55,-18.86 -303.81,-56.59 -96.28,-37.75 -181.37,-93.19 -255.3,-166.36 -73.94,-73.16 -132.09,-161.73 -174.45,-265.7 -42.36,-103.95 -63.53,-222.96 -63.53,-356.97 0,-115.52 21.57,-222.55 64.7,-321.15 43.13,-98.57 102.8,-185.2 179.05,-259.9 76.25,-74.71 165.19,-132.87 266.85,-174.45 101.66,-41.59 211.78,-62.37 330.39,-62.37 147.87,0 281.88,31.96 402.03,95.86 120.12,63.93 209.46,151.36 267.99,262.25l-335.01 256.45c-32.33,-64.68 -80.86,-116.67 -145.56,-155.94 -64.68,-39.29 -133.24,-58.93 -205.63,-58.93 -53.9,0 -103.18,10.78 -147.85,32.36 -44.67,21.55 -83.56,51.58 -116.69,90.11 -33.12,38.5 -58.53,84.31 -76.25,137.47 -17.69,53.13 -26.55,111.29 -26.55,174.42 0,64.7 9.23,123.23 27.72,175.59 18.47,52.39 44.28,97.43 77.4,135.16 33.12,37.75 72.77,67.02 118.98,87.8 46.21,20.8 97.82,31.2 154.81,31.2 72.4,0 141.7,-18.09 207.92,-54.3 66.25,-36.18 126.32,-87.4 180.23,-153.64l0 438.98c-123.24,112.44 -265.71,168.65 -427.44,168.65zm404.34 -561.42l-302.68 0 0 -323.47 674.65 0 0 873.35 -371.97 0 0 -549.88zm2296.54 157.1l0 392.78 -1169.09 0 0 -1640.4 1148.28 0 0 392.77 -697.75 0 0 231.04 596.09 0 0 365.05 -596.09 0 0 258.76 718.56 0zm667.68 -413.55l0 806.33 -450.53 0 0 -1640.4 351.16 0 658.48 834.07 0 -834.07 450.53 0 0 1640.4 -358.1 0 -651.54 -806.33zm2467.6 413.55l0 392.78 -1169.08 0 0 -1640.4 1148.28 0 0 392.77 -697.75 0 0 231.04 596.09 0 0 365.05 -596.09 0 0 258.76 718.55 0zm217.16 392.78l0 -1640.4 753.19 0c80.08,0 154.02,16.18 221.81,48.5 67.76,32.35 126.29,75.88 175.59,130.55 49.27,54.68 87.4,115.92 114.35,183.69 26.95,67.76 40.44,136.32 40.44,205.63 0,63.13 -9.23,123.98 -27.72,182.51 -18.49,58.53 -45.45,112.06 -80.88,160.59 -35.42,48.5 -77.77,90.48 -127.07,125.92l346.56 603.01 -494.43 0 -288.8 -503.67 -182.51 0 0 503.67 -450.53 0zm450.53 -896.44l284.17 0c18.49,0 36.21,-6.94 53.13,-20.8 16.95,-13.87 31.21,-33.9 42.75,-60.08 11.55,-26.18 17.32,-57.76 17.32,-94.71 0,-38.53 -6.54,-70.48 -19.63,-95.89 -13.09,-25.41 -29.27,-45.07 -48.5,-58.93 -19.27,-13.86 -38.13,-20.78 -56.62,-20.78l-272.62 0 0 351.19zm1804.47 907.98c-106.29,0 -207.55,-18.86 -303.81,-56.59 -96.28,-37.75 -181.39,-93.19 -255.3,-166.36 -73.94,-73.16 -132.1,-161.73 -174.45,-265.7 -42.36,-103.95 -63.54,-222.96 -63.54,-356.97 0,-115.52 21.56,-222.55 64.68,-321.15 43.15,-98.57 102.83,-185.2 179.08,-259.9 76.23,-74.71 165.19,-132.87 266.85,-174.45 101.66,-41.59 211.78,-62.37 330.38,-62.37 147.88,0 281.89,31.96 402.03,95.86 120.13,63.93 209.47,151.36 268,262.25l-335.01 256.45c-32.36,-64.68 -80.86,-116.67 -145.56,-155.94 -64.68,-39.29 -133.24,-58.93 -205.63,-58.93 -53.9,0 -103.2,10.78 -147.87,32.36 -44.67,21.55 -83.54,51.58 -116.67,90.11 -33.12,38.5 -58.53,84.31 -76.25,137.47 -17.72,53.13 -26.58,111.29 -26.58,174.42 0,64.7 9.26,123.23 27.75,175.59 18.47,52.39 44.27,97.43 77.4,135.16 33.12,37.75 72.76,67.02 118.98,87.8 46.21,20.8 97.8,31.2 154.79,31.2 72.41,0 141.72,-18.09 207.94,-54.3 66.25,-36.18 126.32,-87.4 180.22,-153.64l0 438.98c-123.23,112.44 -265.7,168.65 -427.43,168.65zm404.31 -561.42l-302.66 0 0 -323.47 674.66 0 0 873.35 -372 0 0 -549.88zm841.09 -1090.52l293.43 670.03 300.35 -670.03 489.83 0 -566.08 1097.44 0 542.96 -448.22 0 0 -547.57 -556.82 -1092.83 487.51 0z"/>
  </g>
 </g>
</svg>
