<?xml version="1.0" encoding="UTF-8"?>
<!DOCTYPE svg PUBLIC "-//W3C//DTD SVG 1.1//EN" "http://www.w3.org/Graphics/SVG/1.1/DTD/svg11.dtd">
<!-- Creator: CorelDRAW 2018 (64-Bit) -->
<svg xmlns="http://www.w3.org/2000/svg" xml:space="preserve" width="292.278mm" height="130mm" version="1.1" style="shape-rendering:geometricPrecision; text-rendering:geometricPrecision; image-rendering:optimizeQuality; fill-rule:evenodd; clip-rule:evenodd"
viewBox="0 0 29227.8 13000"
 xmlns:xlink="http://www.w3.org/1999/xlink">
 <defs>
  <style type="text/css">
   <![CDATA[
    .fil0 {fill:#033474}
    .fil1 {fill:#053275}
    .fil3 {fill:#F65D14}
    .fil2 {fill:#F95D13}
   ]]>
  </style>
 </defs>
 <g id="Katman_x0020_1">
  <metadata id="CorelCorpID_0Corel-Layer"/>
  <g id="_1939904906496">
   <path class="fil0" d="M16137.41 6050.11c10.22,-247.57 129.19,-594.1 244.27,-756.22 132.91,-187.25 321.43,-327.21 652.26,-347.27 366.39,-22.2 569.98,91.19 707.02,293.33 121.55,179.28 201.89,543.1 187.47,813.17l-1791.02 -3.01zm2192.21 910.97c213.02,0.46 426.02,-0.86 639.02,-0.14 518.03,1.77 455.28,37.23 459.35,-149.38 22.19,-1018.4 -123.29,-2208.83 -1054.17,-2688.37 -616.35,-317.5 -1389.39,-363.25 -2119.8,-150.25 -652.96,190.41 -1098.74,620.62 -1341.51,1164.73 -273.06,612 -344.38,1447.72 -238.94,2183.01 108.91,759.5 438.75,1295.19 878.84,1629.03 769.21,583.5 2108.39,571.75 3061.06,200.66 240.93,-93.85 656.71,-304.88 795.09,-459.41l-539.35 -932.78c-63.34,14.79 -271.2,166.23 -360.11,215.55 -393.96,218.54 -934.75,305.17 -1387.94,233.35 -574.07,-90.97 -994.67,-588.67 -992.18,-1246.58l2200.64 0.58z"/>
   <path class="fil1" d="M21651.13 4967.77c589.61,-54.65 1122.99,17.74 1469.71,315.54 456.41,392.02 516.17,1539.2 317.85,2146.22 -268.44,821.64 -929.18,895.84 -1788.42,870.5l0.86 -3332.26zm-1398.68 4358.58c185.9,17.49 1568.62,5.92 1859.49,3.36 1761.14,-15.5 2865.71,-880.91 2890.31,-2691.79 16.31,-1201.49 -466.87,-2068.04 -1293.57,-2426.93 -498.99,-216.63 -1015.15,-250.37 -1614.02,-250.6 -339.36,-0.13 -1612.56,-16.67 -1846.17,4.84l3.96 5361.12z"/>
   <path class="fil2" d="M361.76 5169.51c-7.4,49.74 -32.91,145.21 -50.59,201.32 -32.01,101.56 -34.5,16.62 -77.86,182.47 -29.35,112.33 -182.59,152.87 -45.82,367.43 31.18,48.91 39.14,105.88 78.66,179.15 133.12,246.77 -33.25,138.15 302.28,458.34 434.32,414.45 664.84,574.33 1210.89,826.94l374.84 143.61c132.32,37.28 271.32,76.14 406.88,92.69 794.28,96.96 565.31,8.23 932.63,18.33 320.1,8.79 931.56,-163.43 1178.28,-358.79 101.08,-80.03 159.01,-162.58 265.13,-235.89 141.36,-97.65 174.02,-123.94 271.47,-247.34 108.36,-137.22 156.94,-102.65 166.63,-331.91 6.43,-152.14 20.96,-363.19 -23.17,-495.92 -56.54,-170.04 -88.57,-200.26 -170.61,-328.16 -96.53,-150.5 -177.29,-71.08 -263.79,-100.4 -116.04,-39.34 6.65,-101.16 -289.12,-32.55 -294.96,68.41 -356.74,63.09 -686.47,70.52 -119.54,2.69 -109.97,35.3 -222.83,35.02 -253.22,-0.62 -703.38,-180.65 -910.51,-346.64 -51,-40.87 -101.9,-61.52 -152.09,-107.07l-249.05 -270.8c-75.59,-95.77 82.86,16.88 -43.07,-126.37 -211.2,-240.27 -69.22,-78.89 -213.43,-306.76 -48.79,-77.08 -49.42,-91.86 -83.77,-176.48 -50.14,-123.48 -125.1,-1.03 -234.83,-505.96 -38.67,-177.98 -71.49,-59.26 -157.37,-168.72 -27.56,-35.13 -6.86,-35.03 -27.06,-76.4 -178.05,338.82 -230.08,376.41 -244.36,793.95 -7.9,230.84 8.39,152.76 -156.3,135.14l-92.37 184.17c-35.08,65.45 -36.74,132.49 -70.7,205.97 -253.09,35.27 -96,-203.7 -384.4,-22.3 -90.85,57.15 -61.23,104.77 -145.36,104.01 -59.59,-0.54 -83.37,194.46 -162.06,229.65l-20.1 6.62c-1.29,-3.23 -7.35,1.4 -10.6,3.13z"/>
   <path class="fil2" d="M7714 1519.99c-2.48,-58.31 14.57,-180.95 22.55,-252.7 14.25,-128.04 194.16,-455.04 270.92,-549.04 156.66,-191.83 124.85,-230.03 303.77,-254.37 125.43,-17.06 84.22,-45.57 162.41,-107.38 55.31,-43.72 145.45,-48.34 153.27,-112.28 13.79,-112.74 -314.52,-132.13 -417.83,-135.42 -135.94,-4.35 -137.82,-25.75 -235.55,39.37 -97.65,65.06 -339.06,79 -424.92,110.47 -89.66,32.86 -64.06,53.13 -205.68,69.68 -124.36,14.53 -106.45,44.03 -212.69,65.89 -106.16,21.85 -88.73,-19.35 -214.13,11.94 -140.15,34.98 -436.46,-13.29 -482.74,-43.03 -64.29,-41.32 -84.49,-85.79 -199.52,-19.7 -162.98,93.64 -29.46,27.69 -193.88,81.99l-342.76 210.21c-100.42,72.65 -428.1,428.46 -533.62,554.99 -65.98,79.12 -49.17,98.63 -96.77,180.39 -55.33,95.03 -56.55,13.1 -125.41,131.73 -34.43,59.32 -44.89,115.66 -85.41,191.92 -33.81,63.66 -51.62,122.16 -72.15,205.55 -33.79,137.23 -0.9,155.31 -5.23,245.74 -2.78,58.35 -50.69,81.67 -44.66,207.68 3.23,2.11 9.27,3.12 11.03,3.46l34.52 -0.56c0.25,-1.39 1.41,-3.11 2.71,-2.9 12.18,108.75 -9.58,170.43 -20.92,268.57 -13.68,118.26 26.47,104.54 22.17,232.29 -5.25,155.56 23.2,108.94 73.35,225.48 29.27,68.01 55.02,133.4 89.06,187.62l36.68 -72.53c25.38,45.99 58.67,103.58 88.15,156.25 35.87,64.1 33.52,90.37 70.33,152.45l186.99 280.07c78.34,98.7 137.16,148.17 231.93,234.59 78.02,71.13 119.38,167.74 204.6,244.58 55.34,49.9 85.79,39.17 135.9,106.67 86.79,116.93 203.9,253.87 387.62,298.75 213.21,52.07 646.27,3.59 818.32,-66.37 350.61,-142.57 482.15,-469.82 591.37,-807.59 47.14,-145.79 45.35,-224.76 76,-375.71 30.65,-150.98 55.1,-215.45 69.19,-391.15 15.23,-189.88 260.45,-588.17 166.24,-715.41l-180.26 -270.96c-2.56,3.87 -4.69,9.78 -5.95,12.61l-28.59 68.62c-93.93,-112.8 -32.92,-518.36 -35.09,-686.77 -2.57,3.9 -4.84,9.78 -6.22,12.54l-39.1 71.77z"/>
   <polygon class="fil0" points="27090.4,4979.31 29059.32,4978.86 29053.78,3960.08 25707.74,3965.95 25712.9,9328.71 27088.87,9327.55 27091.48,7039.28 28850.82,7038.3 28845.29,6052.76 27090,6048.29 "/>
   <path class="fil3" d="M2060.49 10194.83c1.09,4.68 -7.38,38.03 -34.54,46.68 -48.92,-39.63 -144.81,-134.08 -206.91,-148.32 -4.84,185 -39.57,152.74 38.82,323.44 122.35,266.44 49.43,185.49 16.75,263.73 30.26,71.34 80.89,161.08 107.6,233.98 24.5,66.89 37.51,208.21 59.19,286.21 26.09,93.88 71.66,170.2 51.16,287.74 -13.83,79.26 14.19,245.56 66,268.45 2.67,1.18 8.7,4.2 12.03,5.61 3.34,1.42 8.53,3.72 12.29,5.24 296.39,120.36 -6.07,128.96 261.96,226.34l-25.78 105.59c123.74,59.12 55.97,52.42 236.28,76.57 95.35,12.77 163.77,23.02 259.98,33.37 -7.08,64.63 -24.94,33.29 -23.34,109.03 286.19,92.87 103.58,38.39 308.29,37.72 62.84,-0.21 122.23,14.92 172.91,15.17 46.98,0.23 107.27,-8.05 178.83,-8.62l14.68 90.98c179.78,21.9 639.55,42.75 823.31,23.38 154.57,-16.3 172.55,27.33 352.15,-47.01l693.92 -360.09c126.44,-19.19 -22.06,7.3 64.8,11.65 37.49,1.87 19.77,-1 58.25,-24.26 313.11,-189.22 221.69,-195.47 434.39,-414.18 164.67,-169.31 417.77,-585.12 456.34,-824.15 34.14,-211.61 -9.96,-144.72 84.62,-449.22 25.54,-82.22 10.5,-114.26 19.08,-224.66 25.52,-328.23 -71,-460.17 -85.9,-743.21 -14.19,-269.8 -129.68,-793.08 -468.44,-789.93 -187.85,1.74 -252.67,-39.83 -363.02,65.13 -121.08,115.16 -14.74,-46.55 -276.7,137.78 -183.21,128.91 -233.59,303.99 -363.96,482.53 -139.2,190.63 -445.18,509.26 -646.79,630.88 -87.6,52.84 -159.97,111.76 -256.57,159.26 -129.66,63.75 -334.15,117.8 -470.9,164.89 -50.42,17.36 -115.34,32.14 -163.13,45.49 -501.57,140.12 -223.12,61.64 -758.69,90.12 -210.31,11.19 -504.26,-107.14 -638.96,-193.31z"/>
   <path class="fil2" d="M11965.35 4436.59c-5.95,-15.34 -0.57,-9.23 -8.67,-22.66 -375.26,-32.42 -684.41,-56.46 -1072.24,-17.7 53.31,28.45 66.03,7.91 119.82,26.2 -110.42,66.41 -110.5,24.59 -256.79,31.19 -131.02,5.93 -145.11,20.83 -261.8,10.99 -223.26,-18.82 -572.9,149.66 -678.53,177.79 -212.45,56.61 -384.79,72.27 -634.84,229.35 -218.58,137.31 -213.15,109.31 -380.44,206.26 -130.72,75.75 -210.69,157 -307,264.01 -133.03,147.81 -171.59,128.94 -171.12,397.88 0.6,345.13 61.31,299.07 85.67,343.18 26.07,47.19 1.34,49.63 35.82,103.89 95.3,149.95 832.26,59.69 1034.05,47.76 452.01,-26.71 1160.99,32.09 1575.26,157.97 175.53,53.33 279.65,60.39 423.45,148.37 66.43,40.65 86.26,77.55 170.64,120.91 55.14,28.33 139.18,72.29 169.79,106.94 47.45,53.71 0.67,-5.92 20.67,43.53l17.96 36.64c1.43,2.95 4.22,7.3 5.65,10.48 1.53,3.4 3.75,7.97 5.23,11.61l28.08 79.94c42.11,76.29 47.5,3.77 45.24,79.34 -1.13,37.81 -23.34,41.11 -28.68,112.09 84.34,58.33 130.73,95.46 277.78,101.5 267.1,10.97 254.82,-15.57 361.38,-12.69 23.99,31.26 23.74,36.93 53.97,66.42l207.49 -2.67c-3.94,-2.46 -10.18,-3.93 -12.97,-5.1 -78.49,-33.06 -56.42,-13.05 -66.34,-38.68 142.76,-11.5 278.01,5.09 408.24,-3.93 165.6,-11.49 168.32,-79.03 198.35,-115.28l52.95 -45.04c-9.68,-171.46 61.57,-127.05 214.9,-135.14 98.59,-5.19 69.08,-21.85 143,-49.07 272.62,-100.41 149.71,-90.03 230.24,-306.34 18.53,-49.79 38.22,-62.53 52.16,-119.43 33.79,-137.94 38.11,-43.03 56.72,-115.58 5.95,-94.57 -32.69,-165.89 -34.99,-225.82 -2.61,-67.91 41.95,-119.79 1.69,-225.23 -37.04,-97.02 -46.17,-35.62 -76.79,-180.84 -15.11,-71.68 -38.88,-118.24 -64.73,-177.64 -109.17,-250.87 -281.02,-380.02 -454.26,-547.29 -330.62,-319.22 -1007.07,-508.12 -1477.41,-547.16 -1.36,-2.06 -2.62,-5.93 -2.96,-6.78l-5.64 -14.17z"/>
   <path class="fil2" d="M10477.78 12056.37c81.74,63 162.91,141.18 244.84,203.72 243.26,185.69 152.69,40.23 240.28,210.34 69.28,134.54 155.13,102.9 337.54,110.18 133.59,5.33 275.21,-8.62 371.42,-60.42 161.62,-87 314.6,-217.57 426.89,-246.9 128.73,-33.62 61.52,-37.81 139.39,-85.74 121.77,-74.94 141.41,119.34 303.1,-76.08 199.74,-241.42 56.93,-107.91 172.78,-326.72 34.76,-65.66 41.02,-246.91 15.55,-324.14 -37.69,-114.3 -25.56,-238.19 -62.63,-369.72 -70.13,-248.82 -170.86,-401.07 -286,-592.58 -51.34,-85.39 -119.84,-186.3 -180.43,-268.88 -57.67,-78.6 -122.26,-195.46 -187.51,-262.13 -155.56,-158.99 -292.46,-295.89 -443.66,-437.09 -185.3,-173.05 -768.89,-602.05 -1050.76,-728.66 -56.09,-25.2 -91.69,-54.6 -147.66,-76.28 -168.64,-65.34 -215.87,-118.25 -460.26,-213.11 -346.22,-134.39 -1125.61,-408.42 -1441.05,-249.61 -41.62,20.95 -86.7,62.73 -131.06,94.62 -114.48,82.26 -242.96,86.82 -292.81,371.07l69.06 51.83c-7.21,117.61 -25.38,75.13 67.03,148.19 61.4,48.53 74.97,57.33 150.06,91.33 98.84,44.75 180.18,115.92 281.08,185.29 378.6,260.28 265.04,255.49 450.93,482.28 152.25,185.77 270.93,335.1 365,584.24 29.83,79 69.43,108.64 76.4,167.13 11.68,98.01 -15.98,222.57 20.6,322.26 13.19,35.94 19.7,32.04 26.52,92.97 18.19,162.4 2.18,118.77 -37.85,154.83 5.91,199.57 -15.89,227.6 -110.37,345.51 14.46,117.51 120.87,193.59 205.6,240.78 245.1,136.49 194.84,46.49 334.28,113.62 110.89,53.38 185.25,101.11 276.87,172.59 133.51,104.16 203.48,134.18 256.83,175.28z"/>
  </g>
 </g>
</svg>
